HIERARCHY
ROOT hip
{
  OFFSET 0 0 0
  CHANNELS 6 Xposition Yposition Zposition Zrotation Yrotation Xrotation
  JOINT abdomen
  {
    OFFSET 0 20.6881 -0.73152
    CHANNELS 3 Zrotation Xrotation Yrotation
    JOINT chest
    {
      OFFSET 0 11.7043 -0.48768
      CHANNELS 3 Zrotation Xrotation Yrotation
      JOINT neck
      {
        OFFSET 0 22.1894 -2.19456
        CHANNELS 3 Zrotation Xrotation Yrotation
        JOINT head
        {
          OFFSET -0.24384 7.07133 1.2192
          CHANNELS 3 Zrotation Xrotation Yrotation
          JOINT leftEye
          {
            OFFSET 4.14528 8.04674 8.04672
            CHANNELS 3 Zrotation Xrotation Yrotation
            End Site
            {
              OFFSET 1 0 0
            }
          }
          JOINT rightEye
          {
            OFFSET -3.6576 8.04674 8.04672
            CHANNELS 3 Zrotation Xrotation Yrotation
            End Site
            {
              OFFSET 1 0 0
            }
          }
        }
      }
      JOINT rCollar
      {
        OFFSET -2.68224 19.2634 -4.8768
        CHANNELS 3 Zrotation Xrotation Yrotation
        JOINT rShldr
        {
          OFFSET -8.77824 -1.95073 1.46304
          CHANNELS 3 Zrotation Xrotation Yrotation
          JOINT rForeArm
          {
            OFFSET -28.1742 -1.7115 0.48768
            CHANNELS 3 Zrotation Xrotation Yrotation
            JOINT rHand
            {
              OFFSET -22.5879 0.773209 7.07136
              CHANNELS 3 Zrotation Xrotation Yrotation
              JOINT rThumb1
              {
                OFFSET -1.2192 -0.487915 3.41376
                CHANNELS 3 Zrotation Xrotation Yrotation
                JOINT rThumb2
                {
                  OFFSET -3.37035 -0.52449 3.41376
                  CHANNELS 3 Zrotation Xrotation Yrotation
                  End Site
                  {
                    OFFSET -1.78271 -1.18214 1.43049
                  }
                }
              }
              JOINT rIndex1
              {
                OFFSET -7.75947 0.938293 5.60832
                CHANNELS 3 Zrotation Xrotation Yrotation
                JOINT rIndex2
                {
                  OFFSET -2.54057 -0.884171 1.56538
                  CHANNELS 3 Zrotation Xrotation Yrotation
                  End Site
                  {
                    OFFSET -1.62519 -0.234802 1.16502
                  }
                }
              }
              JOINT rMid1
              {
                OFFSET -8.24714 1.18213 3.41376
                CHANNELS 3 Zrotation Xrotation Yrotation
                JOINT rMid2
                {
                  OFFSET -3.10165 -0.590103 1.0647
                  CHANNELS 3 Zrotation Xrotation Yrotation
                  End Site
                  {
                    OFFSET -2.48547 -0.328903 0.83742
                  }
                }
              }
              JOINT rRing1
              {
                OFFSET -8.82822 0.546677 1.51678
                CHANNELS 3 Zrotation Xrotation Yrotation
                JOINT rRing2
                {
                  OFFSET -2.60934 -0.819778 -0.0198488
                  CHANNELS 3 Zrotation Xrotation Yrotation
                  End Site
                  {
                    OFFSET -2.33842 -0.294052 0.168128
                  }
                }
              }
              JOINT rPinky1
              {
                OFFSET -8.27202 -0.0477905 -0.4584
                CHANNELS 3 Zrotation Xrotation Yrotation
                JOINT rPinky2
                {
                  OFFSET -1.82734 -0.647385 -0.700984
                  CHANNELS 3 Zrotation Xrotation Yrotation
                  End Site
                  {
                    OFFSET -1.69225 -0.51767 -0.607171
                  }
                }
              }
            }
          }
        }
      }
      JOINT lCollar
      {
        OFFSET 2.68224 19.2634 -4.8768
        CHANNELS 3 Zrotation Xrotation Yrotation
        JOINT lShldr
        {
          OFFSET 8.77824 -1.95073 1.46304
          CHANNELS 3 Zrotation Xrotation Yrotation
          JOINT lForeArm
          {
            OFFSET 28.1742 -1.7115 0.48768
            CHANNELS 3 Zrotation Xrotation Yrotation
            JOINT lHand
            {
              OFFSET 22.5879 0.773209 7.07136
              CHANNELS 3 Zrotation Xrotation Yrotation
              JOINT lThumb1
              {
                OFFSET 1.2192 -0.487915 3.41376
                CHANNELS 3 Zrotation Xrotation Yrotation
                JOINT lThumb2
                {
                  OFFSET 3.37035 -0.52449 3.41376
                  CHANNELS 3 Zrotation Xrotation Yrotation
                  End Site
                  {
                    OFFSET 1.78271 -1.18214 1.43049
                  }
                }
              }
              JOINT lIndex1
              {
                OFFSET 7.75947 0.938293 5.60832
                CHANNELS 3 Zrotation Xrotation Yrotation
                JOINT lIndex2
                {
                  OFFSET 2.54057 -0.884171 1.56538
                  CHANNELS 3 Zrotation Xrotation Yrotation
                  End Site
                  {
                    OFFSET 1.62519 -0.234802 1.16502
                  }
                }
              }
              JOINT lMid1
              {
                OFFSET 8.24714 1.18213 3.41376
                CHANNELS 3 Zrotation Xrotation Yrotation
                JOINT lMid2
                {
                  OFFSET 3.10165 -0.590103 1.0647
                  CHANNELS 3 Zrotation Xrotation Yrotation
                  End Site
                  {
                    OFFSET 2.48547 -0.328903 0.83742
                  }
                }
              }
              JOINT lRing1
              {
                OFFSET 8.82822 0.546677 1.51678
                CHANNELS 3 Zrotation Xrotation Yrotation
                JOINT lRing2
                {
                  OFFSET 2.60934 -0.819778 -0.0198488
                  CHANNELS 3 Zrotation Xrotation Yrotation
                  End Site
                  {
                    OFFSET 2.33842 -0.294052 0.168128
                  }
                }
              }
              JOINT lPinky1
              {
                OFFSET 8.27202 -0.0477905 -0.4584
                CHANNELS 3 Zrotation Xrotation Yrotation
                JOINT lPinky2
                {
                  OFFSET 1.82734 -0.647385 -0.700984
                  CHANNELS 3 Zrotation Xrotation Yrotation
                  End Site
                  {
                    OFFSET 1.69225 -0.51767 -0.607171
                  }
                }
              }
            }
          }
        }
      }
    }
  }
  JOINT rButtock
  {
    OFFSET -8.77824 4.35084 1.2192
    CHANNELS 3 Zrotation Xrotation Yrotation
    JOINT rThigh
    {
      OFFSET 0 -1.70687 -2.19456
      CHANNELS 3 Zrotation Xrotation Yrotation
      JOINT rShin
      {
        OFFSET 0 -36.8199 0.73152
        CHANNELS 3 Zrotation Xrotation Yrotation
        JOINT rFoot
        {
          OFFSET 0.73152 -45.1104 -5.12064
          CHANNELS 3 Zrotation Xrotation Yrotation
          End Site
          {
            OFFSET -1.1221 -3.69964 12.103
          }
        }
      }
    }
  }
  JOINT lButtock
  {
    OFFSET 8.77824 4.35084 1.2192
    CHANNELS 3 Zrotation Xrotation Yrotation
    JOINT lThigh
    {
      OFFSET 0 -1.70687 -2.19456
      CHANNELS 3 Zrotation Xrotation Yrotation
      JOINT lShin
      {
        OFFSET 0 -36.8199 0.73152
        CHANNELS 3 Zrotation Xrotation Yrotation
        JOINT lFoot
        {
          OFFSET -0.73152 -45.1104 -5.12064
          CHANNELS 3 Zrotation Xrotation Yrotation
          End Site
          {
            OFFSET 1.1221 -3.69964 12.103
          }
        }
      }
    }
  }
}
MOTION
Frames:	4
Frame Time:	0.03333
0.13040000200271606 57.947200775146484 -1.100000023841858 7.435900121927261 49.88319754600525 12.53770038485527 -6.377749890089035 13.576699644327164 -6.348100081086159 7.582179754972458 -12.729800194501877 -1.1107099615037441 -10.73739968240261 18.260399848222733 -13.817599564790726 11.063499972224236 -27.572100162506104 -24.840101301670074 0.0 0.0 0.0 0.0 0.0 0.0 0.0 0.0 0.0 43.82300108671188 3.100470006465912 33.37950110435486 -28.063301146030426 -31.00019931793213 68.84239733219147 -0.6336769927293062 22.00760006904602 3.256490081548691 1.3505996321327984e-09 2.1717028175771702e-09 -1.4836132322670892e-10 2.3302959561988246e-09 3.724380803760141e-09 -2.8137492336099967e-10 1.3505996321327984e-09 2.1717028175771702e-09 -1.4836132322670892e-10 7.7309102565050125 5.474880114197731 0.41731400415301323 1.3505996321327984e-09 2.1717028175771702e-09 -1.4836132322670892e-10 2.905540131032467 0.9651830233633518 0.102901995414868 1.3505996321327984e-09 2.1717028175771702e-09 -1.4836132322670892e-10 10.27859978377819 0.7318009994924068 0.025912300043273717 1.3505996321327984e-09 2.1717028175771702e-09 -1.4836132322670892e-10 2.221670038998127 -0.733487019315362 -0.2089200052432716 0.0 0.0 0.0 -85.43380200862885 77.19569742679596 9.02223028242588 27.80529946088791 -41.3384011387825 -86.3545024394989 25.60149997472763 -75.45770108699799 32.74729907512665 -8.326139777636854e-10 -7.405276392091764e-09 8.0831341620069e-10 -1.460591647628462e-09 -1.2590248843480367e-08 1.3250200936454348e-09 -8.326139777636854e-10 -7.405276392091764e-09 8.0831341620069e-10 -7.7309102565050125 5.474880114197731 -0.41731400415301323 -8.326139777636854e-10 -7.405276392091764e-09 8.0831341620069e-10 -2.905540131032467 0.9651830233633518 -0.102901995414868 -8.326139777636854e-10 -7.405276392091764e-09 8.0831341620069e-10 -10.27859978377819 0.7318009994924068 -0.025912300043273717 -8.326139777636854e-10 -7.405276392091764e-09 8.0831341620069e-10 -2.221670038998127 -0.733487019315362 0.2089200052432716 0.0 0.0 0.0 -61.52999818325043 -51.94440007209778 -59.168999791145325 -3.0225400999188423 75.0534975528717 3.5815198346972466 0.0448989006690681 -3.5391000285744667 0.8317719586193562 0.0 0.0 0.0 29.284800589084625 -15.712699592113495 33.90800088644028 0.6355780083686113 62.120599150657654 -3.498459868133068 5.745109990239143 -16.773499846458435 21.679100543260574
0.23400000482797623 58.059898376464844 -2.0230000019073486 7.389499917626381 49.945998787879944 12.648600339889526 -6.793690100312233 13.419900387525558 -6.127820312976837 7.708299905061722 -12.692500054836273 -1.049500023946166 -10.749700292944908 18.360199481248856 -13.941599428653717 11.256300508975983 -27.93409913778305 -25.03960132598877 0.0 0.0 0.0 0.0 0.0 0.0 0.0 0.0 0.0 44.24489915370941 2.124039977788925 33.58040124177933 -28.10540109872818 -31.283499598503113 69.30329740047455 -0.6507450202479959 22.286700010299683 3.302220068871975 1.7649881556280889e-09 2.233093709946843e-09 -1.4426859706873074e-09 3.028617356903851e-09 3.798561465373496e-09 -2.517026587156579e-09 1.7649881556280889e-09 2.233093709946843e-09 -1.4426859706873074e-09 7.7309102565050125 5.474880114197731 0.41731400415301323 1.7649881556280889e-09 2.233093709946843e-09 -1.4426859706873074e-09 2.905540131032467 0.9651830233633518 0.102901995414868 1.7649881556280889e-09 2.233093709946843e-09 -1.4426859706873074e-09 10.27859978377819 0.7318009994924068 0.025912300043273717 1.7649881556280889e-09 2.233093709946843e-09 -1.4426859706873074e-09 2.221670038998127 -0.733487019315362 -0.2089200052432716 0.0 0.0 0.0 -88.28909933567047 75.29770195484161 12.372300624847412 27.75200128555298 -41.562301218509674 -86.76940262317657 29.18839931488037 -76.67969942092896 36.4384987950325 -2.34052777159377e-10 -5.934452929068357e-10 -1.5347723092418164e-10 -3.8625103115919046e-10 -8.569145393266808e-10 -2.7625901566352695e-10 -2.34052777159377e-10 -5.934452929068357e-10 -1.5347723092418164e-10 -7.7309102565050125 5.474880114197731 -0.41731400415301323 -2.34052777159377e-10 -5.934452929068357e-10 -1.5347723092418164e-10 -2.905540131032467 0.9651830233633518 -0.102901995414868 -2.34052777159377e-10 -5.934452929068357e-10 -1.5347723092418164e-10 -10.27859978377819 0.7318009994924068 -0.025912300043273717 -2.34052777159377e-10 -5.934452929068357e-10 -1.5347723092418164e-10 -2.221670038998127 -0.733487019315362 0.2089200052432716 0.0 0.0 0.0 -60.96629977226257 -51.344701051712036 -59.91789937019348 -2.9470399394631386 74.69370067119598 3.458319939672947 0.0361722000525333 -4.602369926869869 1.1552399955689907 0.0 0.0 0.0 29.256100952625275 -16.673000156879425 34.9342006444931 0.7044660206884146 63.269400000572205 -3.5555798560380936 5.933319926261902 -17.32190027832985 21.45369976758957
0.3410000056028366 58.16270065307617 -2.8230000138282776 7.304200306534767 49.676302671432495 12.615900188684464 -7.321870028972626 13.334899842739105 -5.7695697247982025 7.780390307307243 -12.591399550437927 -0.959759010002017 -10.698099955916405 18.531300276517868 -14.12229984998703 11.365199536085129 -28.49700093269348 -25.371299386024475 0.0 0.0 0.0 0.0 0.0 0.0 0.0 0.0 0.0 45.02089977264404 1.2267200276255608 33.80039870738983 -28.133800327777863 -31.47979974746704 69.61669743061066 -0.656530000269413 22.38029971718788 3.31759013235569 5.7553961596568115e-11 3.453237695794087e-10 2.916067387559451e-10 1.0615508472255897e-10 6.036771083017811e-10 5.064748620497994e-10 5.7553961596568115e-11 3.453237695794087e-10 2.916067387559451e-10 7.7309102565050125 5.474880114197731 0.41731400415301323 5.7553961596568115e-11 3.453237695794087e-10 2.916067387559451e-10 2.905540131032467 0.9651830233633518 0.102901995414868 5.7553961596568115e-11 3.453237695794087e-10 2.916067387559451e-10 10.27859978377819 0.7318009994924068 0.025912300043273717 5.7553961596568115e-11 3.453237695794087e-10 2.916067387559451e-10 2.221670038998127 -0.733487019315362 -0.2089200052432716 0.0 0.0 0.0 -91.56019806861877 74.25320148468018 16.375199854373932 27.695999443531036 -41.78719907999039 -87.18790233135223 24.130399525165558 -74.8315018415451 31.22239887714386 8.2238216236874e-10 3.4097524803655688e-09 -1.7394086171407253e-10 1.4158274552755756e-09 5.548201897909166e-09 -2.5067947717616335e-10 8.2238216236874e-10 3.4097524803655688e-09 -1.7394086171407253e-10 -7.7309102565050125 5.474880114197731 -0.41731400415301323 8.2238216236874e-10 3.4097524803655688e-09 -1.7394086171407253e-10 -2.905540131032467 0.9651830233633518 -0.102901995414868 8.2238216236874e-10 3.4097524803655688e-09 -1.7394086171407253e-10 -10.27859978377819 0.7318009994924068 -0.025912300043273717 8.2238216236874e-10 3.4097524803655688e-09 -1.7394086171407253e-10 -2.221670038998127 -0.733487019315362 0.2089200052432716 0.0 0.0 0.0 -60.15640139579773 -51.218401193618774 -59.68119978904724 -2.7071999944746494 73.64209771156311 3.1905801594257355 -0.01492780022090301 -5.114449895918369 1.0502799600362778 0.0 0.0 0.0 29.213799834251404 -17.285399436950684 35.94580113887787 0.7671120297163725 64.25620079040527 -3.6201101168990135 6.067569851875305 -17.598799467086792 21.404100358486176
0.4571000039577484 58.210601806640625 -3.5450000166893005 7.203300297260284 49.19970095157623 12.425999790430069 -7.700369954109192 13.321200460195541 -5.35044003278017 7.74617001414299 -12.487199753522873 -0.8599659986793995 -10.625300109386444 18.737200051546097 -14.271300584077835 11.329799741506577 -28.920698761940002 -25.683500468730927 0.0 0.0 0.0 0.0 0.0 0.0 0.0 0.0 0.0 45.715699195861816 0.5722710024565458 34.00609999895096 -28.142300248146057 -31.54190093278885 69.71739828586578 -0.6516210129484534 22.302999794483185 3.3048399165272713 -5.115907697472721e-10 5.1159076974727213e-11 1.2585132935782894e-09 -8.658673777972581e-10 1.2533973858808167e-10 2.1793766791233793e-09 -5.115907697472721e-10 5.1159076974727213e-11 1.2585132935782894e-09 7.7309102565050125 5.474880114197731 0.41731400415301323 -5.115907697472721e-10 5.1159076974727213e-11 1.2585132935782894e-09 2.905540131032467 0.9651830233633518 0.102901995414868 -5.115907697472721e-10 5.1159076974727213e-11 1.2585132935782894e-09 10.27859978377819 0.7318009994924068 0.025912300043273717 -5.115907697472721e-10 5.1159076974727213e-11 1.2585132935782894e-09 2.221670038998127 -0.733487019315362 -0.2089200052432716 0.0 0.0 0.0 -94.43919539451599 73.72889935970306 19.903400391340256 27.638299763202667 -42.009599804878235 -87.60399878025055 21.71189993619919 -73.69050085544586 28.709600865840912 1.7355716863676207e-09 6.619984560529701e-09 -1.944044925039634e-10 2.9825741876265965e-09 1.069736299541546e-08 -2.353317540837452e-10 1.7355716863676207e-09 6.619984560529701e-09 -1.944044925039634e-10 -7.7309102565050125 5.474880114197731 -0.41731400415301323 1.7355716863676207e-09 6.619984560529701e-09 -1.944044925039634e-10 -2.905540131032467 0.9651830233633518 -0.102901995414868 1.7355716863676207e-09 6.619984560529701e-09 -1.944044925039634e-10 -10.27859978377819 0.7318009994924068 -0.025912300043273717 1.7355716863676207e-09 6.619984560529701e-09 -1.944044925039634e-10 -2.221670038998127 -0.733487019315362 0.2089200052432716 0.0 0.0 0.0 -59.58290219306946 -51.183398365974426 -59.318801164627075 -2.502070013433695 72.61740267276764 2.9569198563694954 -0.020249600202078 -5.136599913239479 1.1370400339365005 0.0 0.0 0.0 29.255298972129822 -17.73969992995262 36.80830031633377 0.8372590038925409 65.3233015537262 -3.7024301290512085 6.177700012922287 -17.758299708366394 21.437799632549286
